{
  "accessors": [
    {
      "bufferView": 2,
      "componentType": 5126,
      "count": 382,
      "max": [
        -18.85697364807129,
        8.398656845092773,
        3.844592809677124
      ],
      "min": [
        -30.148456573486328,
        -2.8928303718566895,
        -0.3169581890106201
      ],
      "type": "VEC3"
    },
    {
      "bufferView": 2,
      "byteOffset": 4584,
      "componentType": 5126,
      "count": 382,
      "max": [
        1.0,
        1.0,
        1.0
      ],
      "min": [
        -1.0,
        -1.0,
        -1.0
      ],
      "type": "VEC3"
    },
    {
      "bufferView": 1,
      "componentType": 5126,
      "count": 382,
      "max": [
        1.0000001192092896,
        1.0
      ],
      "min": [
        2.384185791015625e-07,
        0.0
      ],
      "type": "VEC2"
    },
    {
      "bufferView": 0,
      "componentType": 5125,
      "count": 2280,
      "type": "SCALAR"
    },
    {
      "bufferView": 2,
      "byteOffset": 9168,
      "componentType": 5126,
      "count": 608,
      "max": [
        -18.55372428894043,
        8.659008979797363,
        2.854412078857422
      ],
      "min": [
        -30.363597869873047,
        -3.1615164279937744,
        0.6659130454063416
      ],
      "type": "VEC3"
    },
    {
      "bufferView": 2,
      "byteOffset": 16464,
      "componentType": 5126,
      "count": 608,
      "max": [
        0.9955981969833374,
        0.9982976317405701,
        0.9969180822372437
      ],
      "min": [
        -0.9991979002952576,
        -0.9982975721359253,
        -0.8935574889183044
      ],
      "type": "VEC3"
    },
    {
      "bufferView": 1,
      "byteOffset": 3056,
      "componentType": 5126,
      "count": 608,
      "max": [
        0.9999998211860657,
        1.0
      ],
      "min": [
        0.0,
        0.0
      ],
      "type": "VEC2"
    },
    {
      "bufferView": 0,
      "byteOffset": 9120,
      "componentType": 5125,
      "count": 1776,
      "type": "SCALAR"
    }
  ],
  "asset": {
    "extras": {
      "author": "Nurfaamk Cyform (https://sketchfab.com/nurhudaiffah)",
      "license": "CC-BY-4.0 (http://creativecommons.org/licenses/by/4.0/)",
      "source": "https://sketchfab.com/3d-models/kfc-logo-04571cfa96e146aa98efb6d755872b0a",
      "title": "KFC LOGO"
    },
    "generator": "Sketchfab-13.74.0",
    "version": "2.0"
  },
  "bufferViews": [
    {
      "buffer": 0,
      "byteLength": 16224,
      "name": "floatBufferViews",
      "target": 34963
    },
    {
      "buffer": 0,
      "byteLength": 7920,
      "byteOffset": 16224,
      "byteStride": 8,
      "name": "floatBufferViews",
      "target": 34962
    },
    {
      "buffer": 0,
      "byteLength": 23760,
      "byteOffset": 24144,
      "byteStride": 12,
      "name": "floatBufferViews",
      "target": 34962
    }
  ],
  "buffers": [
    {
      "byteLength": 47904,
      "uri": "scene.bin"
    }
  ],
  "extensionsUsed": [
    "KHR_materials_clearcoat"
  ],
  "images": [
    {
      "uri": "textures/aiStandardSurface4_baseColor.png"
    },
    {
      "uri": "textures/aiStandardSurface4_clearcoat.png"
    },
    {
      "uri": "textures/aiStandardSurface3_metallicRoughness.png"
    }
  ],
  "materials": [
    {
      "doubleSided": true,
      "emissiveFactor": [
        1.0,
        1.0,
        1.0
      ],
      "emissiveTexture": {
        "index": 0
      },
      "extensions": {
        "KHR_materials_clearcoat": {
          "clearcoatFactor": 1.0,
          "clearcoatRoughnessFactor": 0.03498354252477747,
          "clearcoatTexture": {
            "index": 1
          }
        }
      },
      "name": "aiStandardSurface4",
      "pbrMetallicRoughness": {
        "baseColorTexture": {
          "index": 0
        },
        "roughnessFactor": 0.3878610149486198
      }
    },
    {
      "doubleSided": true,
      "name": "aiStandardSurface3",
      "pbrMetallicRoughness": {
        "baseColorFactor": [
          0.059319919933318324,
          0.059319919933318324,
          0.059319919933318324,
          1.0
        ],
        "metallicRoughnessTexture": {
          "index": 2
        },
        "roughnessFactor": 0.3756928262443494
      }
    }
  ],
  "meshes": [
    {
      "name": "pSphere2_aiStandardSurface4_0",
      "primitives": [
        {
          "attributes": {
            "NORMAL": 1,
            "POSITION": 0,
            "TEXCOORD_0": 2
          },
          "indices": 3,
          "material": 0,
          "mode": 4
        }
      ]
    },
    {
      "name": "pSphere2_aiStandardSurface3_0",
      "primitives": [
        {
          "attributes": {
            "NORMAL": 5,
            "POSITION": 4,
            "TEXCOORD_0": 6
          },
          "indices": 7,
          "material": 1,
          "mode": 4
        }
      ]
    }
  ],
  "nodes": [
    {
      "children": [
        1
      ],
      "matrix": [
        1.0,
        0.0,
        0.0,
        0.0,
        0.0,
        2.220446049250313e-16,
        -1.0,
        0.0,
        0.0,
        1.0,
        2.220446049250313e-16,
        0.0,
        0.0,
        0.0,
        0.0,
        1.0
      ],
      "name": "Sketchfab_model"
    },
    {
      "children": [
        2
      ],
      "matrix": [
        0.009999999776482582,
        0.0,
        0.0,
        0.0,
        0.0,
        0.0,
        0.009999999776482582,
        0.0,
        0.0,
        -0.009999999776482582,
        0.0,
        0.0,
        0.0,
        0.0,
        0.0,
        1.0
      ],
      "name": "cd00cdb9e34644a6a09edacd2c6a1073.fbx"
    },
    {
      "children": [
        3
      ],
      "name": "RootNode"
    },
    {
      "children": [
        4,
        5
      ],
      "name": "pSphere2"
    },
    {
      "mesh": 0,
      "name": "pSphere2_aiStandardSurface4_0"
    },
    {
      "mesh": 1,
      "name": "pSphere2_aiStandardSurface3_0"
    }
  ],
  "samplers": [
    {
      "magFilter": 9729,
      "minFilter": 9987,
      "wrapS": 10497,
      "wrapT": 10497
    }
  ],
  "scene": 0,
  "scenes": [
    {
      "name": "Sketchfab_Scene",
      "nodes": [
        0
      ]
    }
  ],
  "textures": [
    {
      "sampler": 0,
      "source": 0
    },
    {
      "sampler": 0,
      "source": 1
    },
    {
      "sampler": 0,
      "source": 2
    }
  ]
}
