{
  "accessors": [
    {
      "bufferView": 2,
      "componentType": 5126,
      "count": 14602,
      "max": [
        11.194214820861816,
        6.943508148193359,
        6.843560218811035
      ],
      "min": [
        -11.194214820861816,
        -6.943507671356201,
        -6.843560218811035
      ],
      "type": "VEC3"
    },
    {
      "bufferView": 2,
      "byteOffset": 175224,
      "componentType": 5126,
      "count": 14602,
      "max": [
        0.9953776597976685,
        0.9999300241470337,
        0.9999870657920837
      ],
      "min": [
        -0.9998935461044312,
        -0.999950647354126,
        -0.9999468922615051
      ],
      "type": "VEC3"
    },
    {
      "bufferView": 3,
      "componentType": 5126,
      "count": 14602,
      "max": [
        0.989808201789856,
        0.9989363551139832,
        0.9999749660491943,
        1.0
      ],
      "min": [
        -0.9964698553085327,
        -0.9934245347976685,
        -0.99961256980896,
        1.0
      ],
      "type": "VEC4"
    },
    {
      "bufferView": 1,
      "componentType": 5126,
      "count": 14602,
      "max": [
        0.9979999661445618,
        0.9906077980995178
      ],
      "min": [
        0.0020000000949949026,
        0.0020000000949949026
      ],
      "type": "VEC2"
    },
    {
      "bufferView": 0,
      "componentType": 5125,
      "count": 84798,
      "type": "SCALAR"
    }
  ],
  "asset": {
    "extras": {
      "author": "3dhdscan (https://sketchfab.com/3dhdscan)",
      "license": "CC-BY-4.0 (http://creativecommons.org/licenses/by/4.0/)",
      "source": "https://sketchfab.com/3d-models/rugby-ball-196caf120c9a49159ad1b877c8d595cd",
      "title": "Rugby Ball"
    },
    "generator": "Sketchfab-12.67.0",
    "version": "2.0"
  },
  "bufferViews": [
    {
      "buffer": 0,
      "byteLength": 339192,
      "name": "floatBufferViews",
      "target": 34963
    },
    {
      "buffer": 0,
      "byteLength": 116816,
      "byteOffset": 339192,
      "byteStride": 8,
      "name": "floatBufferViews",
      "target": 34962
    },
    {
      "buffer": 0,
      "byteLength": 350448,
      "byteOffset": 456008,
      "byteStride": 12,
      "name": "floatBufferViews",
      "target": 34962
    },
    {
      "buffer": 0,
      "byteLength": 233632,
      "byteOffset": 806456,
      "byteStride": 16,
      "name": "floatBufferViews",
      "target": 34962
    }
  ],
  "buffers": [
    {
      "byteLength": 1040088,
      "uri": "scene.bin"
    }
  ],
  "images": [
    {
      "uri": "textures/ragby_ball_baseColor.jpeg"
    },
    {
      "uri": "textures/ragby_ball_normal.jpeg"
    }
  ],
  "materials": [
    {
      "doubleSided": true,
      "name": "ragby_ball",
      "normalTexture": {
        "index": 1,
        "scale": 0.6358612804878049
      },
      "pbrMetallicRoughness": {
        "baseColorTexture": {
          "index": 0
        },
        "metallicFactor": 0.0,
        "roughnessFactor": 0.34927591463414637
      }
    }
  ],
  "meshes": [
    {
      "name": "ragby_ball_ragby_ball_0",
      "primitives": [
        {
          "attributes": {
            "NORMAL": 1,
            "POSITION": 0,
            "TANGENT": 2,
            "TEXCOORD_0": 3
          },
          "indices": 4,
          "material": 0,
          "mode": 4
        }
      ]
    }
  ],
  "nodes": [
    {
      "children": [
        1
      ],
      "matrix": [
        0.01168731041252613,
        0.0,
        0.0,
        0.0,
        0.0,
        2.5951042231855694e-18,
        -0.01168731041252613,
        0.0,
        0.0,
        0.01168731041252613,
        2.5951042231855694e-18,
        0.0,
        0.0,
        0.0,
        0.0,
        1.0
      ],
      "name": "Sketchfab_model"
    },
    {
      "children": [
        2
      ],
      "matrix": [
        1.0,
        0.0,
        0.0,
        0.0,
        0.0,
        0.0,
        1.0,
        0.0,
        0.0,
        -1.0,
        0.0,
        0.0,
        0.0,
        0.0,
        0.0,
        1.0
      ],
      "name": "ragby_ball.FBX"
    },
    {
      "children": [
        3
      ],
      "name": "RootNode"
    },
    {
      "children": [
        4
      ],
      "matrix": [
        1.0,
        0.0,
        0.0,
        0.0,
        0.0,
        2.220446049250313e-16,
        -1.0,
        0.0,
        0.0,
        1.0,
        2.220446049250313e-16,
        0.0,
        2.109541893005371,
        0.6149272918701172,
        7.003159523010254,
        1.0
      ],
      "name": "ragby_ball"
    },
    {
      "mesh": 0,
      "name": "ragby_ball_ragby_ball_0"
    }
  ],
  "samplers": [
    {
      "magFilter": 9729,
      "minFilter": 9987,
      "wrapS": 10497,
      "wrapT": 10497
    }
  ],
  "scene": 0,
  "scenes": [
    {
      "name": "Sketchfab_Scene",
      "nodes": [
        0
      ]
    }
  ],
  "textures": [
    {
      "sampler": 0,
      "source": 0
    },
    {
      "sampler": 0,
      "source": 1
    }
  ]
}
