{
  "accessors": [
    {
      "bufferView": 2,
      "componentType": 5126,
      "count": 52259,
      "max": [
        43.98878479003906,
        20.661453247070313,
        47.589935302734375
      ],
      "min": [
        -41.676578521728516,
        -9.337596893310547,
        -39.944366455078125
      ],
      "type": "VEC3"
    },
    {
      "bufferView": 2,
      "byteOffset": 627108,
      "componentType": 5126,
      "count": 52259,
      "max": [
        0.9999194741249084,
        0.9999984502792358,
        0.9999896287918091
      ],
      "min": [
        -0.9999930262565613,
        -0.9999977350234985,
        -0.999919056892395
      ],
      "type": "VEC3"
    },
    {
      "bufferView": 3,
      "componentType": 5126,
      "count": 52259,
      "max": [
        1.0,
        0.9999575018882751,
        0.9999998807907104,
        1.0
      ],
      "min": [
        -0.9999958276748657,
        -0.9993107318878174,
        -0.9999973773956299,
        1.0
      ],
      "type": "VEC4"
    },
    {
      "bufferView": 1,
      "componentType": 5126,
      "count": 52259,
      "max": [
        0.9802737832069397,
        1.0000001192092896
      ],
      "min": [
        0.015271037817001343,
        0.0
      ],
      "type": "VEC2"
    },
    {
      "bufferView": 1,
      "byteOffset": 418072,
      "componentType": 5126,
      "count": 52259,
      "max": [
        0.0,
        0.0
      ],
      "min": [
        0.0,
        0.0
      ],
      "type": "VEC2"
    },
    {
      "bufferView": 0,
      "componentType": 5125,
      "count": 293184,
      "type": "SCALAR"
    },
    {
      "bufferView": 2,
      "byteOffset": 1254216,
      "componentType": 5126,
      "count": 860,
      "max": [
        -10.526406288146973,
        13.63686466217041,
        -3.97979736328125
      ],
      "min": [
        -22.698135375976563,
        9.52014446258545,
        -12.169189453125
      ],
      "type": "VEC3"
    },
    {
      "bufferView": 2,
      "byteOffset": 1264536,
      "componentType": 5126,
      "count": 860,
      "max": [
        0.99705570936203,
        0.97716224193573,
        0.9997042417526245
      ],
      "min": [
        -0.9997839331626892,
        -0.9837890863418579,
        -0.9179736971855164
      ],
      "type": "VEC3"
    },
    {
      "bufferView": 1,
      "byteOffset": 836144,
      "componentType": 5126,
      "count": 860,
      "max": [
        0.9900693297386169,
        1.0032402276992798
      ],
      "min": [
        0.010647897608578205,
        0.015396599657833576
      ],
      "type": "VEC2"
    },
    {
      "bufferView": 1,
      "byteOffset": 843024,
      "componentType": 5126,
      "count": 860,
      "max": [
        0.9966505169868469,
        0.9967058897018433
      ],
      "min": [
        0.0032703708857297897,
        0.003293961752206087
      ],
      "type": "VEC2"
    },
    {
      "bufferView": 0,
      "byteOffset": 1172736,
      "componentType": 5125,
      "count": 2880,
      "type": "SCALAR"
    }
  ],
  "asset": {
    "extras": {
      "author": "dercruz926 (https://sketchfab.com/dercruz926)",
      "license": "CC-BY-4.0 (http://creativecommons.org/licenses/by/4.0/)",
      "source": "https://sketchfab.com/3d-models/snake-model-ce642db7a44b4cbb9bbae22b977df0ae",
      "title": "Snake Model"
    },
    "generator": "Sketchfab-13.74.0",
    "version": "2.0"
  },
  "bufferViews": [
    {
      "buffer": 0,
      "byteLength": 1184256,
      "name": "floatBufferViews",
      "target": 34963
    },
    {
      "buffer": 0,
      "byteLength": 849904,
      "byteOffset": 1184256,
      "byteStride": 8,
      "name": "floatBufferViews",
      "target": 34962
    },
    {
      "buffer": 0,
      "byteLength": 1274856,
      "byteOffset": 2034160,
      "byteStride": 12,
      "name": "floatBufferViews",
      "target": 34962
    },
    {
      "buffer": 0,
      "byteLength": 836144,
      "byteOffset": 3309016,
      "byteStride": 16,
      "name": "floatBufferViews",
      "target": 34962
    }
  ],
  "buffers": [
    {
      "byteLength": 4145160,
      "uri": "scene.bin"
    }
  ],
  "images": [
    {
      "uri": "textures/normal_baseColor.png"
    },
    {
      "uri": "textures/normal_normal.png"
    },
    {
      "uri": "textures/textojos_baseColor.png"
    }
  ],
  "materials": [
    {
      "doubleSided": true,
      "name": "normal",
      "normalTexture": {
        "index": 1
      },
      "pbrMetallicRoughness": {
        "baseColorTexture": {
          "index": 0
        },
        "metallicFactor": 0.0,
        "roughnessFactor": 0.4
      }
    },
    {
      "doubleSided": true,
      "name": "textojos",
      "pbrMetallicRoughness": {
        "baseColorTexture": {
          "index": 2
        },
        "metallicFactor": 0.0,
        "roughnessFactor": 0.4
      }
    }
  ],
  "meshes": [
    {
      "name": "Object_0",
      "primitives": [
        {
          "attributes": {
            "NORMAL": 1,
            "POSITION": 0,
            "TANGENT": 2,
            "TEXCOORD_0": 3,
            "TEXCOORD_1": 4
          },
          "indices": 5,
          "material": 0,
          "mode": 4
        }
      ]
    },
    {
      "name": "Object_1",
      "primitives": [
        {
          "attributes": {
            "NORMAL": 7,
            "POSITION": 6,
            "TEXCOORD_0": 8,
            "TEXCOORD_1": 9
          },
          "indices": 10,
          "material": 1,
          "mode": 4
        }
      ]
    }
  ],
  "nodes": [
    {
      "children": [
        1
      ],
      "matrix": [
        1.0,
        0.0,
        0.0,
        0.0,
        0.0,
        2.220446049250313e-16,
        -1.0,
        0.0,
        0.0,
        1.0,
        2.220446049250313e-16,
        0.0,
        0.0,
        0.0,
        0.0,
        1.0
      ],
      "name": "Sketchfab_model"
    },
    {
      "children": [
        2
      ],
      "name": "root"
    },
    {
      "children": [
        3
      ],
      "matrix": [
        1.0,
        0.0,
        0.0,
        0.0,
        0.0,
        2.220446049250313e-16,
        1.0,
        0.0,
        0.0,
        -1.0,
        2.220446049250313e-16,
        0.0,
        0.0,
        0.0,
        0.0,
        1.0
      ],
      "name": "GLTF_SceneRootNode"
    },
    {
      "children": [
        4,
        5
      ],
      "matrix": [
        0.07999999076128006,
        0.0,
        0.0,
        0.0,
        0.0,
        0.07999999076128006,
        0.0,
        0.0,
        0.0,
        0.0,
        0.07999999076128006,
        0.0,
        0.0,
        0.0,
        0.0,
        1.0
      ],
      "name": "Serpiente_0"
    },
    {
      "mesh": 0,
      "name": "Object_4"
    },
    {
      "mesh": 1,
      "name": "Object_5"
    }
  ],
  "samplers": [
    {
      "magFilter": 9729,
      "minFilter": 9987,
      "wrapS": 10497,
      "wrapT": 10497
    }
  ],
  "scene": 0,
  "scenes": [
    {
      "name": "Sketchfab_Scene",
      "nodes": [
        0
      ]
    }
  ],
  "textures": [
    {
      "sampler": 0,
      "source": 0
    },
    {
      "sampler": 0,
      "source": 1
    },
    {
      "sampler": 0,
      "source": 2
    }
  ]
}
